<svg width="290" height="286" viewBox="0 0 290 286" fill="none" xmlns="http://www.w3.org/2000/svg">
<line x1="193" y1="0.5" x2="241" y2="0.5" stroke="black"/>
<line x1="193" y1="47.5" x2="241" y2="47.5" stroke="black"/>
<line x1="241" y1="0.5" x2="289" y2="0.5" stroke="black"/>
<line x1="241" y1="47.5" x2="289" y2="47.5" stroke="black"/>
<line x1="289.5" x2="289.5" y2="48" stroke="black"/>
<line x1="49" y1="0.5" x2="97" y2="0.5" stroke="black"/>
<line x1="49" y1="47.5" x2="97" y2="47.5" stroke="black"/>
<line x1="1" y1="0.5" x2="49" y2="0.5" stroke="black"/>
<line x1="1" y1="47.5" x2="49" y2="47.5" stroke="black"/>
<line x1="0.5" x2="0.5" y2="48" stroke="black"/>
<path d="M143.892 0.500002L144.118 0.500008L145 0.500008L145.882 0.500007L145.883 0.500007L146.338 0.500006H146.338C146.338 0.500006 146.338 0.500004 146.338 0.500001L156.499 0.5C156.453 9.92583 155.124 18.4264 153.012 24.5866C151.937 27.7235 150.667 30.2262 149.283 31.9347C147.894 33.6473 146.444 34.5 145 34.5C143.556 34.5 142.106 33.6473 140.717 31.9347C139.333 30.2262 138.063 27.7235 136.988 24.5866C134.876 18.4264 133.547 9.92583 133.501 0.5L143.662 0.500003H143.662L143.662 0.500003L143.663 0.500003L143.666 0.500003L143.678 0.500004L143.757 0.500004L143.892 0.500002Z" stroke="black"/>
<line x1="97" y1="0.5" x2="133" y2="0.5" stroke="black"/>
<line x1="157" y1="0.5" x2="193" y2="0.5" stroke="black"/>
<line x1="97.5" y1="47" x2="97.5" y2="42" stroke="black"/>
<line x1="97.5" y1="6" x2="97.5" y2="1" stroke="black"/>
<line x1="49.5" y1="1" x2="49.5" y2="6" stroke="black"/>
<line x1="49.5" y1="47" x2="49.5" y2="42" stroke="black"/>
<line x1="192.5" y1="47" x2="192.5" y2="42" stroke="black"/>
<line x1="192.5" y1="6" x2="192.5" y2="1" stroke="black"/>
<path d="M240.5 6V1" stroke="black"/>
<line x1="240.5" y1="47" x2="240.5" y2="42" stroke="black"/>
<line x1="110.5" y1="58" x2="110.5" y2="180" stroke="black"/>
<line x1="179.5" y1="58" x2="179.5" y2="180" stroke="black"/>
<line x1="97.323" y1="47.6183" x2="110.323" y2="58.6183" stroke="black"/>
<line x1="179.677" y1="58.6183" x2="192.677" y2="47.6183" stroke="black"/>
<line x1="110.322" y1="179.382" x2="97.323" y2="190.382" stroke="black"/>
<line x1="192.677" y1="190.382" x2="179.677" y2="179.381" stroke="black"/>
<line x1="97.5" y1="190" x2="97.5" y2="238" stroke="black"/>
<line x1="192.5" y1="190" x2="192.5" y2="238" stroke="black"/>
<path d="M139.5 238L144 214.5L139.5 191" stroke="black"/>
<path d="M150.5 238L146 214.5L150.5 191" stroke="black"/>
<line x1="98" y1="285.5" x2="140" y2="285.5" stroke="black"/>
<line x1="150" y1="285.5" x2="192" y2="285.5" stroke="black"/>
<line x1="111" y1="179.5" x2="116" y2="179.5" stroke="black"/>
<line x1="174" y1="179.5" x2="179" y2="179.5" stroke="black"/>
<mask id="path-36-inside-1_15_155" fill="white">
<path d="M149.727 94.7587V96.8382H143.693C143.128 96.8354 142.634 96.7005 142.21 96.4334C141.79 96.1664 141.463 95.7971 141.23 95.3255C140.997 94.8567 140.881 94.3141 140.881 93.6976C140.881 93.1522 140.976 92.6564 141.166 92.2104C141.357 91.7672 141.652 91.4135 142.053 91.1493C142.453 90.888 142.966 90.7587 143.591 90.7615V92.8624C143.366 92.8709 143.175 92.9135 143.016 92.9902C142.859 93.0698 142.741 93.1792 142.662 93.3184C142.582 93.4576 142.543 93.6238 142.543 93.8169C142.543 94.0186 142.585 94.1891 142.67 94.3283C142.759 94.4675 142.888 94.5726 143.058 94.6436C143.229 94.7175 143.44 94.7559 143.693 94.7587H149.727ZM140.876 101.222C140.876 100.537 141.011 99.9466 141.281 99.4494C141.554 98.9551 141.942 98.5744 142.445 98.3074C142.95 98.0431 143.551 97.911 144.247 97.911C144.923 97.911 145.514 98.0446 146.02 98.3116C146.528 98.5787 146.923 98.9551 147.205 99.4409C147.489 99.9267 147.631 100.499 147.631 101.158C147.631 101.624 147.558 102.05 147.413 102.437C147.268 102.823 147.054 103.157 146.77 103.438C146.486 103.719 146.135 103.938 145.717 104.094C145.303 104.251 144.827 104.329 144.29 104.329H143.77V98.6397H144.98V102.39C145.202 102.387 145.399 102.334 145.572 102.232C145.746 102.13 145.881 101.989 145.977 101.81C146.077 101.634 146.126 101.431 146.126 101.201C146.126 100.968 146.074 100.759 145.969 100.574C145.866 100.39 145.726 100.243 145.547 100.135C145.371 100.028 145.17 99.9707 144.946 99.965H143.714C143.447 99.965 143.213 100.018 143.011 100.123C142.813 100.228 142.658 100.377 142.547 100.57C142.436 100.763 142.381 100.993 142.381 101.26C142.381 101.445 142.406 101.613 142.457 101.763C142.509 101.914 142.584 102.043 142.683 102.151C142.783 102.259 142.905 102.34 143.05 102.394L142.994 104.307C142.565 104.228 142.192 104.053 141.874 103.783C141.558 103.516 141.313 103.165 141.136 102.731C140.963 102.296 140.876 101.793 140.876 101.222ZM140.906 107.784C140.906 107.301 141.031 106.862 141.281 106.467C141.531 106.072 141.906 105.757 142.406 105.521C142.906 105.285 143.527 105.167 144.268 105.167C145.038 105.167 145.672 105.289 146.169 105.534C146.666 105.778 147.034 106.097 147.273 106.492C147.511 106.89 147.631 107.318 147.631 107.775C147.631 108.119 147.571 108.413 147.452 108.657C147.335 108.901 147.185 109.103 147 109.262C146.815 109.421 146.624 109.542 146.425 109.624V109.667H149.727V111.751H141V109.688H142.061V109.624C141.859 109.536 141.67 109.411 141.494 109.249C141.318 109.088 141.176 108.884 141.068 108.64C140.96 108.399 140.906 108.113 140.906 107.784ZM142.53 108.508C142.53 108.761 142.601 108.977 142.743 109.156C142.888 109.335 143.091 109.472 143.352 109.569C143.614 109.666 143.92 109.714 144.273 109.714C144.631 109.714 144.939 109.666 145.197 109.569C145.456 109.475 145.655 109.338 145.794 109.156C145.933 108.977 146.003 108.761 146.003 108.508C146.003 108.249 145.932 108.031 145.79 107.852C145.648 107.673 145.447 107.536 145.189 107.443C144.93 107.352 144.625 107.306 144.273 107.306C143.92 107.306 143.614 107.353 143.352 107.447C143.091 107.541 142.888 107.676 142.743 107.852C142.601 108.031 142.53 108.249 142.53 108.508ZM141 113.069H147.545V115.153H141V113.069ZM148.308 114.113C148.308 113.82 148.405 113.569 148.598 113.358C148.794 113.148 149.03 113.043 149.305 113.043C149.578 113.043 149.811 113.148 150.004 113.358C150.2 113.569 150.298 113.82 150.298 114.113C150.298 114.408 150.2 114.66 150.004 114.867C149.811 115.077 149.578 115.182 149.305 115.182C149.03 115.182 148.794 115.077 148.598 114.867C148.405 114.66 148.308 114.408 148.308 114.113ZM141 119.057H149.727V122.662C149.727 123.316 149.609 123.879 149.374 124.354C149.141 124.831 148.805 125.199 148.368 125.458C147.933 125.716 147.418 125.845 146.821 125.845C146.216 125.845 145.702 125.713 145.278 125.449C144.858 125.185 144.537 124.81 144.315 124.324C144.097 123.838 143.987 123.263 143.987 122.598V120.318H145.649V122.206C145.649 122.524 145.69 122.79 145.773 123.003C145.858 123.219 145.986 123.382 146.156 123.493C146.33 123.604 146.551 123.659 146.821 123.659C147.091 123.659 147.314 123.604 147.49 123.493C147.669 123.382 147.803 123.219 147.891 123.003C147.982 122.787 148.027 122.521 148.027 122.206V121.166H141V119.057ZM144.989 123.97L141 126.144V123.843L144.989 121.712V123.97ZM140.876 129.929C140.876 129.241 141.017 128.65 141.298 128.156C141.582 127.665 141.977 127.285 142.483 127.018C142.991 126.754 143.581 126.622 144.251 126.622C144.925 126.622 145.514 126.754 146.02 127.018C146.528 127.285 146.923 127.665 147.205 128.156C147.489 128.65 147.631 129.241 147.631 129.929C147.631 130.616 147.489 131.206 147.205 131.697C146.923 132.192 146.528 132.571 146.02 132.835C145.514 133.102 144.925 133.236 144.251 133.236C143.581 133.236 142.991 133.102 142.483 132.835C141.977 132.571 141.582 132.192 141.298 131.697C141.017 131.206 140.876 130.616 140.876 129.929ZM142.449 129.942C142.449 130.192 142.526 130.403 142.679 130.577C142.832 130.75 143.045 130.882 143.318 130.973C143.591 131.067 143.906 131.113 144.264 131.113C144.628 131.113 144.946 131.067 145.219 130.973C145.491 130.882 145.705 130.75 145.858 130.577C146.011 130.403 146.088 130.192 146.088 129.942C146.088 129.683 146.011 129.464 145.858 129.285C145.705 129.109 145.491 128.974 145.219 128.881C144.946 128.79 144.628 128.744 144.264 128.744C143.906 128.744 143.591 128.79 143.318 128.881C143.045 128.974 142.832 129.109 142.679 129.285C142.526 129.464 142.449 129.683 142.449 129.942ZM145.547 140.018L145.496 138.104C145.632 138.084 145.753 138.03 145.858 137.942C145.966 137.854 146.05 137.739 146.109 137.597C146.172 137.458 146.203 137.296 146.203 137.111C146.203 136.87 146.155 136.664 146.058 136.493C145.962 136.326 145.831 136.243 145.666 136.246C145.538 136.243 145.428 136.295 145.334 136.4C145.24 136.508 145.165 136.699 145.108 136.975L144.869 138.236C144.744 138.89 144.537 139.376 144.247 139.694C143.957 140.015 143.574 140.177 143.097 140.18C142.648 140.177 142.257 140.043 141.925 139.779C141.592 139.518 141.334 139.16 141.149 138.705C140.967 138.251 140.876 137.731 140.876 137.145C140.876 136.211 141.068 135.474 141.452 134.934C141.838 134.397 142.355 134.09 143.003 134.013L143.054 136.072C142.815 136.117 142.634 136.235 142.509 136.425C142.384 136.616 142.321 136.858 142.321 137.154C142.321 137.421 142.371 137.638 142.47 137.806C142.57 137.974 142.702 138.059 142.866 138.062C143.014 138.059 143.132 137.993 143.22 137.866C143.311 137.738 143.382 137.537 143.433 137.265L143.651 136.123C143.77 135.466 143.99 134.978 144.311 134.657C144.635 134.336 145.047 134.177 145.547 134.18C145.984 134.177 146.358 134.293 146.668 134.529C146.98 134.765 147.219 135.1 147.384 135.535C147.548 135.969 147.631 136.482 147.631 137.073C147.631 137.959 147.445 138.658 147.072 139.17C146.703 139.681 146.195 139.964 145.547 140.018ZM145.547 146.92L145.496 145.007C145.632 144.987 145.753 144.933 145.858 144.845C145.966 144.757 146.05 144.642 146.109 144.499C146.172 144.36 146.203 144.198 146.203 144.014C146.203 143.772 146.155 143.566 146.058 143.396C145.962 143.228 145.831 143.146 145.666 143.149C145.538 143.146 145.428 143.197 145.334 143.302C145.24 143.41 145.165 143.602 145.108 143.877L144.869 145.139C144.744 145.792 144.537 146.278 144.247 146.596C143.957 146.917 143.574 147.079 143.097 147.082C142.648 147.079 142.257 146.945 141.925 146.681C141.592 146.42 141.334 146.062 141.149 145.607C140.967 145.153 140.876 144.633 140.876 144.048C140.876 143.113 141.068 142.376 141.452 141.836C141.838 141.299 142.355 140.992 143.003 140.916L143.054 142.974C142.815 143.019 142.634 143.137 142.509 143.328C142.384 143.518 142.321 143.761 142.321 144.056C142.321 144.323 142.371 144.541 142.47 144.708C142.57 144.876 142.702 144.961 142.866 144.964C143.014 144.961 143.132 144.896 143.22 144.768C143.311 144.64 143.382 144.44 143.433 144.167L143.651 143.025C143.77 142.369 143.99 141.88 144.311 141.559C144.635 141.238 145.047 141.079 145.547 141.082C145.984 141.079 146.358 141.195 146.668 141.431C146.98 141.667 147.219 142.002 147.384 142.437C147.548 142.872 147.631 143.384 147.631 143.975C147.631 144.862 147.445 145.561 147.072 146.072C146.703 146.583 146.195 146.866 145.547 146.92Z"/>
</mask>
<path d="M149.727 94.7587H150.727V93.7587H149.727V94.7587ZM149.727 96.8382V97.8382H150.727V96.8382H149.727ZM143.693 96.8382L143.688 97.8382H143.693V96.8382ZM142.21 96.4334L141.674 97.2776L141.677 97.2792L142.21 96.4334ZM141.23 95.3255L142.127 94.8826L142.126 94.8804L141.23 95.3255ZM141.166 92.2104L140.247 91.8158L140.246 91.8179L141.166 92.2104ZM142.053 91.1493L141.506 90.3118L141.502 90.3146L142.053 91.1493ZM143.591 90.7615H144.591V89.7661L143.595 89.7616L143.591 90.7615ZM143.591 92.8624L143.629 93.8617L144.591 93.8251V92.8624H143.591ZM143.016 92.9902L142.581 92.0895L142.572 92.0942L142.562 92.0991L143.016 92.9902ZM142.662 93.3184L143.53 93.8145L143.53 93.8145L142.662 93.3184ZM142.67 94.3283L141.818 94.8505L141.821 94.8567L141.825 94.8629L142.67 94.3283ZM143.058 94.6436L143.456 93.726L143.443 93.7206L143.058 94.6436ZM143.693 94.7587L143.682 95.7587H143.693V94.7587ZM148.727 94.7587V96.8382H150.727V94.7587H148.727ZM149.727 95.8382H143.693V97.8382H149.727V95.8382ZM143.698 95.8383C143.295 95.8362 142.989 95.7423 142.744 95.5877L141.677 97.2792C142.278 97.6586 142.961 97.8346 143.688 97.8382L143.698 95.8383ZM142.746 95.5893C142.489 95.426 142.283 95.1995 142.127 94.8826L140.334 95.7683C140.643 96.3946 141.09 96.9067 141.674 97.2775L142.746 95.5893ZM142.126 94.8804C141.973 94.5725 141.881 94.187 141.881 93.6976H139.881C139.881 94.4412 140.022 95.1409 140.335 95.7705L142.126 94.8804ZM141.881 93.6976C141.881 93.2703 141.955 92.9103 142.086 92.6029L140.246 91.8179C139.997 92.4026 139.881 93.0341 139.881 93.6976H141.881ZM142.085 92.605C142.199 92.3404 142.367 92.1401 142.603 91.9841L141.502 90.3146C140.937 90.6869 140.514 91.194 140.247 91.8158L142.085 92.605ZM142.599 91.9868C142.792 91.8606 143.098 91.7593 143.586 91.7615L143.595 89.7616C142.834 89.7581 142.114 89.9153 141.506 90.3118L142.599 91.9868ZM142.591 90.7615V92.8624H144.591V90.7615H142.591ZM143.553 91.8631C143.227 91.8755 142.893 91.9391 142.581 92.0895L143.45 93.891C143.456 93.8879 143.506 93.8663 143.629 93.8617L143.553 91.8631ZM142.562 92.0991C142.249 92.2584 141.979 92.498 141.794 92.8222L143.53 93.8145C143.519 93.8332 143.505 93.8509 143.49 93.865C143.475 93.8786 143.466 93.883 143.469 93.8814L142.562 92.0991ZM141.794 92.8222C141.612 93.1407 141.543 93.4853 141.543 93.8169H143.543C143.543 93.7887 143.546 93.7779 143.545 93.7802C143.545 93.7813 143.544 93.7854 143.541 93.7917C143.539 93.7981 143.535 93.8059 143.53 93.8145L141.794 92.8222ZM141.543 93.8169C141.543 94.1596 141.616 94.5208 141.818 94.8505L143.523 93.8061C143.53 93.8174 143.535 93.8278 143.539 93.8364C143.542 93.845 143.544 93.851 143.545 93.8535C143.546 93.8583 143.543 93.8478 143.543 93.8169H141.543ZM141.825 94.8629C142.036 95.1966 142.337 95.4266 142.674 95.5667L143.443 93.7206C143.437 93.7181 143.447 93.7214 143.464 93.7357C143.483 93.7506 143.501 93.7707 143.516 93.7937L141.825 94.8629ZM142.661 95.5612C142.989 95.7033 143.341 95.7548 143.682 95.7586L143.704 93.7588C143.539 93.7569 143.469 93.7317 143.456 93.7261L142.661 95.5612ZM143.693 95.7587H149.727V93.7587H143.693V95.7587ZM141.281 99.4494L140.406 98.9663L140.402 98.9723L141.281 99.4494ZM142.445 98.3074L141.982 97.421L141.976 97.4242L142.445 98.3074ZM146.02 98.3116L145.553 99.1959L145.555 99.197L146.02 98.3116ZM147.205 99.4409L146.339 99.9419L146.341 99.9457L147.205 99.4409ZM147.413 102.437L148.35 102.788L148.35 102.788L147.413 102.437ZM145.717 104.094L145.367 103.158L145.365 103.158L145.717 104.094ZM143.77 104.329H142.77V105.329H143.77V104.329ZM143.77 98.6397V97.6397H142.77V98.6397H143.77ZM144.98 98.6397H145.98V97.6397H144.98V98.6397ZM144.98 102.39H143.98V103.403L144.993 103.39L144.98 102.39ZM145.977 101.81L145.106 101.319L145.102 101.327L145.097 101.335L145.977 101.81ZM145.969 100.574L145.094 101.059L145.1 101.069L145.969 100.574ZM145.547 100.135L145.024 100.988L145.03 100.992L145.547 100.135ZM144.946 99.965L144.971 98.9653L144.959 98.965H144.946V99.965ZM143.011 100.123L142.549 99.2359L142.544 99.2386L143.011 100.123ZM142.547 100.57L141.679 100.073L141.679 100.073L142.547 100.57ZM142.457 101.763L141.511 102.085L141.511 102.085L142.457 101.763ZM142.683 102.151L141.948 102.829L141.948 102.829L142.683 102.151ZM143.05 102.394L144.049 102.423L144.07 101.707L143.399 101.457L143.05 102.394ZM142.994 104.307L142.812 105.291L143.96 105.503L143.994 104.336L142.994 104.307ZM141.874 103.783L142.52 103.021L142.52 103.02L141.874 103.783ZM141.136 102.731L140.207 103.101L140.21 103.106L141.136 102.731ZM141.876 101.222C141.876 100.669 141.985 100.249 142.16 99.9265L140.402 98.9723C140.038 99.6437 139.876 100.406 139.876 101.222H141.876ZM142.157 99.9325C142.335 99.6097 142.581 99.3673 142.914 99.1905L141.976 97.4242C141.303 97.7815 140.773 98.3005 140.406 98.9663L142.157 99.9325ZM142.908 99.1937C143.242 99.0188 143.677 98.911 144.247 98.911V96.911C143.425 96.911 142.658 97.0675 141.982 97.421L142.908 99.1937ZM144.247 98.911C144.79 98.911 145.215 99.0176 145.553 99.1959L146.487 97.4273C145.813 97.0716 145.056 96.911 144.247 96.911V98.911ZM145.555 99.197C145.9 99.3784 146.155 99.6234 146.339 99.9419L148.07 98.9398C147.692 98.2868 147.156 97.7789 146.485 97.4263L145.555 99.197ZM146.341 99.9457C146.522 100.254 146.631 100.646 146.631 101.158H148.631C148.631 100.352 148.456 99.5995 148.068 98.9361L146.341 99.9457ZM146.631 101.158C146.631 101.52 146.575 101.825 146.477 102.085L148.35 102.788C148.542 102.276 148.631 101.729 148.631 101.158H146.631ZM146.477 102.085C146.381 102.341 146.244 102.551 146.066 102.727L147.473 104.149C147.864 103.763 148.156 103.305 148.35 102.788L146.477 102.085ZM146.066 102.727C145.894 102.898 145.668 103.045 145.367 103.158L146.068 105.031C146.602 104.831 147.078 104.54 147.473 104.149L146.066 102.727ZM145.365 103.158C145.084 103.264 144.731 103.329 144.29 103.329V105.329C144.922 105.329 145.521 105.237 146.07 105.03L145.365 103.158ZM144.29 103.329H143.77V105.329H144.29V103.329ZM144.77 104.329V98.6397H142.77V104.329H144.77ZM143.77 99.6397H144.98V97.6397H143.77V99.6397ZM143.98 98.6397V102.39H145.98V98.6397H143.98ZM144.993 103.39C145.371 103.385 145.742 103.293 146.081 103.093L145.064 101.371C145.056 101.376 145.033 101.389 144.967 101.39L144.993 103.39ZM146.081 103.093C146.413 102.897 146.675 102.622 146.857 102.285L145.097 101.335C145.086 101.356 145.079 101.362 145.064 101.371L146.081 103.093ZM146.848 102.302C147.043 101.956 147.126 101.579 147.126 101.201H145.126C145.126 101.283 145.11 101.312 145.106 101.319L146.848 102.302ZM147.126 101.201C147.126 100.812 147.037 100.429 146.838 100.08L145.1 101.069C145.111 101.089 145.126 101.124 145.126 101.201H147.126ZM146.844 100.09C146.657 99.7537 146.394 99.4785 146.063 99.2792L145.03 100.992C145.058 101.008 145.076 101.026 145.094 101.059L146.844 100.09ZM146.069 99.2829C145.731 99.0751 145.356 98.9751 144.971 98.9653L144.921 100.965C144.985 100.966 145.011 100.98 145.024 100.988L146.069 99.2829ZM144.946 98.965H143.714V100.965H144.946V98.965ZM143.714 98.965C143.315 98.965 142.917 99.0445 142.549 99.2359L143.474 101.009C143.51 100.991 143.58 100.965 143.714 100.965V98.965ZM142.544 99.2386C142.18 99.4312 141.885 99.7136 141.679 100.073L143.414 101.068C143.43 101.04 143.445 101.024 143.479 101.007L142.544 99.2386ZM141.679 100.073C141.466 100.445 141.381 100.854 141.381 101.26H143.381C143.381 101.133 143.406 101.082 143.414 101.068L141.679 100.073ZM141.381 101.26C141.381 101.537 141.419 101.816 141.511 102.085L143.404 101.442C143.393 101.41 143.381 101.353 143.381 101.26H141.381ZM141.511 102.085C141.603 102.356 141.746 102.61 141.948 102.829L143.419 101.474C143.419 101.474 143.419 101.473 143.418 101.473C143.418 101.473 143.417 101.472 143.416 101.47C143.414 101.466 143.41 101.458 143.404 101.442L141.511 102.085ZM141.948 102.829C142.159 103.058 142.416 103.225 142.701 103.331L143.399 101.457C143.394 101.455 143.396 101.455 143.402 101.459C143.408 101.463 143.414 101.468 143.419 101.474L141.948 102.829ZM142.05 102.365L141.995 104.278L143.994 104.336L144.049 102.423L142.05 102.365ZM143.177 103.324C142.911 103.275 142.699 103.172 142.52 103.021L141.227 104.546C141.684 104.934 142.22 105.181 142.812 105.291L143.177 103.324ZM142.52 103.02C142.344 102.871 142.187 102.66 142.063 102.355L140.21 103.106C140.438 103.67 140.773 104.161 141.227 104.546L142.52 103.02ZM142.065 102.36C141.948 102.066 141.876 101.693 141.876 101.222H139.876C139.876 101.893 139.978 102.526 140.207 103.101L142.065 102.36ZM141.281 106.467L140.436 105.932L140.436 105.932L141.281 106.467ZM142.406 105.521L141.98 104.616L141.98 104.616L142.406 105.521ZM146.169 105.534L145.728 106.431L145.728 106.431L146.169 105.534ZM147.273 106.492L148.13 105.978L148.129 105.975L147.273 106.492ZM147.452 108.657L146.553 108.218L146.549 108.227L147.452 108.657ZM147 109.262L147.653 110.02L147.653 110.02L147 109.262ZM146.425 109.624L146.042 108.701L145.425 108.956V109.624H146.425ZM146.425 109.667H145.425V110.667H146.425V109.667ZM149.727 109.667H150.727V108.667H149.727V109.667ZM149.727 111.751V112.751H150.727V111.751H149.727ZM141 111.751H140V112.751H141V111.751ZM141 109.688V108.688H140V109.688H141ZM142.061 109.688V110.688H143.061V109.688H142.061ZM142.061 109.624H143.061V108.97L142.461 108.708L142.061 109.624ZM141.494 109.249L142.171 108.513L142.171 108.513L141.494 109.249ZM141.068 108.64L141.983 108.236L141.981 108.232L141.068 108.64ZM142.743 109.156L141.96 109.777L141.966 109.785L142.743 109.156ZM143.352 109.569L143.006 110.507L143.006 110.507L143.352 109.569ZM145.197 109.569L144.857 108.629L144.847 108.632L145.197 109.569ZM145.794 109.156L145.005 108.542L145 108.548L145.794 109.156ZM145.189 107.443L145.53 106.503L145.521 106.499L145.189 107.443ZM142.743 107.852L141.971 107.216L141.965 107.223L141.96 107.23L142.743 107.852ZM141.906 107.784C141.906 107.483 141.981 107.231 142.126 107.002L140.436 105.932C140.082 106.492 139.906 107.118 139.906 107.784H141.906ZM142.126 107.002C142.257 106.795 142.473 106.595 142.833 106.425L141.98 104.616C141.34 104.918 140.805 105.349 140.436 105.932L142.126 107.002ZM142.833 106.425C143.162 106.27 143.627 106.167 144.268 106.167V104.167C143.427 104.167 142.65 104.3 141.98 104.616L142.833 106.425ZM144.268 106.167C144.942 106.167 145.411 106.275 145.728 106.431L146.61 104.636C145.933 104.303 145.135 104.167 144.268 104.167V106.167ZM145.728 106.431C146.088 106.608 146.296 106.809 146.417 107.01L148.129 105.975C147.773 105.386 147.244 104.948 146.61 104.636L145.728 106.431ZM146.415 107.007C146.562 107.251 146.631 107.502 146.631 107.775H148.631C148.631 107.134 148.461 106.529 148.13 105.978L146.415 107.007ZM146.631 107.775C146.631 108.006 146.59 108.142 146.553 108.218L148.35 109.096C148.552 108.684 148.631 108.232 148.631 107.775H146.631ZM146.549 108.227C146.486 108.36 146.416 108.446 146.347 108.505L147.653 110.02C147.954 109.761 148.185 109.443 148.354 109.087L146.549 108.227ZM146.347 108.505C146.233 108.603 146.131 108.664 146.042 108.701L146.807 110.548C147.117 110.42 147.398 110.239 147.653 110.02L146.347 108.505ZM145.425 109.624V109.667H147.425V109.624H145.425ZM146.425 110.667H149.727V108.667H146.425V110.667ZM148.727 109.667V111.751H150.727V109.667H148.727ZM149.727 110.751H141V112.751H149.727V110.751ZM142 111.751V109.688H140V111.751H142ZM141 110.688H142.061V108.688H141V110.688ZM143.061 109.688V109.624H141.061V109.688H143.061ZM142.461 108.708C142.37 108.668 142.273 108.607 142.171 108.513L140.818 109.986C141.068 110.216 141.349 110.405 141.661 110.541L142.461 108.708ZM142.171 108.513C142.107 108.455 142.042 108.369 141.983 108.236L140.153 109.044C140.311 109.4 140.529 109.72 140.818 109.986L142.171 108.513ZM141.981 108.232C141.943 108.146 141.906 108.006 141.906 107.784H139.906C139.906 108.22 139.978 108.651 140.155 109.048L141.981 108.232ZM141.53 108.508C141.53 108.961 141.662 109.403 141.96 109.777L143.526 108.534C143.527 108.534 143.528 108.536 143.53 108.54C143.532 108.543 143.533 108.546 143.533 108.547C143.533 108.548 143.533 108.547 143.532 108.541C143.531 108.535 143.53 108.524 143.53 108.508H141.53ZM141.966 109.785C142.245 110.13 142.611 110.361 143.006 110.507L143.699 108.631C143.571 108.584 143.53 108.539 143.52 108.527L141.966 109.785ZM143.006 110.507C143.403 110.654 143.832 110.714 144.273 110.714V108.714C144.009 108.714 143.824 108.677 143.699 108.631L143.006 110.507ZM144.273 110.714C144.716 110.714 145.149 110.655 145.547 110.506L144.847 108.632C144.729 108.677 144.545 108.714 144.273 108.714V110.714ZM145.538 110.509C145.94 110.363 146.311 110.125 146.588 109.764L145 108.548C144.999 108.55 144.972 108.587 144.857 108.629L145.538 110.509ZM146.583 109.77C146.875 109.395 147.003 108.956 147.003 108.508H145.003C145.003 108.542 144.998 108.555 144.999 108.553C144.999 108.552 145 108.55 145.001 108.547C145.003 108.544 145.004 108.542 145.005 108.542L146.583 109.77ZM147.003 108.508C147.003 108.055 146.874 107.609 146.573 107.23L145.006 108.473C145.005 108.472 145.003 108.469 145.002 108.466C145 108.462 144.999 108.459 144.998 108.459C144.998 108.457 145.003 108.471 145.003 108.508H147.003ZM146.573 107.23C146.294 106.879 145.927 106.647 145.53 106.503L144.848 108.383C144.968 108.426 145.001 108.467 145.006 108.473L146.573 107.23ZM145.521 106.499C145.13 106.362 144.707 106.306 144.273 106.306V108.306C144.543 108.306 144.731 108.342 144.857 108.386L145.521 106.499ZM144.273 106.306C143.835 106.306 143.409 106.364 143.015 106.506L143.69 108.388C143.818 108.342 144.006 108.306 144.273 108.306V106.306ZM143.015 106.506C142.62 106.647 142.253 106.874 141.971 107.216L143.515 108.487C143.523 108.478 143.561 108.434 143.69 108.388L143.015 106.506ZM141.96 107.23C141.659 107.609 141.53 108.055 141.53 108.508H143.53C143.53 108.471 143.535 108.457 143.534 108.459C143.534 108.459 143.533 108.462 143.531 108.466C143.529 108.469 143.527 108.472 143.526 108.473L141.96 107.23ZM141 113.069V112.069H140V113.069H141ZM147.545 113.069H148.545V112.069H147.545V113.069ZM147.545 115.153V116.153H148.545V115.153H147.545ZM141 115.153H140V116.153H141V115.153ZM148.598 113.358L147.867 112.677L147.862 112.682L148.598 113.358ZM150.004 113.358L149.268 114.035L149.273 114.04L150.004 113.358ZM150.004 114.867L149.277 114.18L149.268 114.19L150.004 114.867ZM148.598 114.867L147.866 115.549L147.867 115.549L148.598 114.867ZM141 114.069H147.545V112.069H141V114.069ZM146.545 113.069V115.153H148.545V113.069H146.545ZM147.545 114.153H141V116.153H147.545V114.153ZM142 115.153V113.069H140V115.153H142ZM149.308 114.113C149.308 114.078 149.313 114.065 149.314 114.063C149.315 114.062 149.318 114.053 149.334 114.035L147.862 112.682C147.494 113.082 147.308 113.576 147.308 114.113H149.308ZM149.329 114.04C149.338 114.031 149.343 114.028 149.342 114.028C149.341 114.029 149.337 114.032 149.329 114.035C149.321 114.039 149.314 114.041 149.308 114.042C149.302 114.044 149.3 114.043 149.305 114.043V112.043C148.739 112.043 148.243 112.273 147.867 112.677L149.329 114.04ZM149.305 114.043C149.309 114.043 149.306 114.043 149.299 114.042C149.291 114.04 149.282 114.038 149.273 114.033C149.264 114.029 149.259 114.026 149.257 114.024C149.255 114.023 149.259 114.026 149.268 114.035L150.741 112.682C150.368 112.276 149.872 112.043 149.305 112.043V114.043ZM149.273 114.04C149.282 114.051 149.287 114.057 149.289 114.061C149.292 114.065 149.293 114.067 149.293 114.068C149.293 114.068 149.298 114.08 149.298 114.113H151.298C151.298 113.572 151.108 113.076 150.736 112.677L149.273 114.04ZM149.298 114.113C149.298 114.131 149.297 114.143 149.296 114.15C149.294 114.156 149.293 114.159 149.293 114.16C149.293 114.16 149.292 114.161 149.291 114.164C149.289 114.166 149.286 114.172 149.278 114.18L150.731 115.554C151.109 115.154 151.298 114.654 151.298 114.113H149.298ZM149.268 114.19C149.259 114.2 149.255 114.202 149.257 114.201C149.259 114.2 149.264 114.196 149.273 114.192C149.282 114.188 149.291 114.185 149.299 114.184C149.306 114.182 149.309 114.182 149.305 114.182V116.182C149.872 116.182 150.368 115.949 150.741 115.544L149.268 114.19ZM149.305 114.182C149.3 114.182 149.302 114.182 149.308 114.183C149.314 114.184 149.321 114.187 149.329 114.19C149.337 114.194 149.341 114.197 149.342 114.197C149.343 114.198 149.338 114.195 149.329 114.185L147.867 115.549C148.243 115.952 148.739 116.182 149.305 116.182V114.182ZM149.33 114.185C149.322 114.177 149.318 114.172 149.317 114.169C149.315 114.167 149.315 114.165 149.314 114.164C149.314 114.164 149.308 114.15 149.308 114.113H147.308C147.308 114.649 147.493 115.148 147.866 115.549L149.33 114.185ZM141 119.057V118.057H140V119.057H141ZM149.727 119.057H150.727V118.057H149.727V119.057ZM149.374 124.354L148.478 123.909L148.475 123.915L149.374 124.354ZM148.368 125.458L147.859 124.597L147.857 124.598L148.368 125.458ZM145.278 125.449L144.746 126.296L144.749 126.297L145.278 125.449ZM144.315 124.324L143.404 124.735L143.406 124.739L144.315 124.324ZM143.987 120.318V119.318H142.987V120.318H143.987ZM145.649 120.318H146.649V119.318H145.649V120.318ZM145.773 123.003L144.84 123.364L144.843 123.37L145.773 123.003ZM146.156 123.493L145.611 124.332L145.618 124.336L146.156 123.493ZM147.49 123.493L146.964 122.643L146.958 122.647L147.49 123.493ZM147.891 123.003L146.969 122.615L146.965 122.625L147.891 123.003ZM148.027 121.166H149.027V120.166H148.027V121.166ZM141 121.166H140V122.166H141V121.166ZM144.989 123.97L145.467 124.848L145.989 124.564V123.97H144.989ZM141 126.144H140V127.827L141.478 127.022L141 126.144ZM141 123.843L140.529 122.96L140 123.243V123.843H141ZM144.989 121.712H145.989V120.044L144.517 120.83L144.989 121.712ZM141 120.057H149.727V118.057H141V120.057ZM148.727 119.057V122.662H150.727V119.057H148.727ZM148.727 122.662C148.727 123.196 148.631 123.601 148.478 123.909L150.269 124.799C150.588 124.158 150.727 123.435 150.727 122.662H148.727ZM148.475 123.915C148.324 124.225 148.12 124.442 147.859 124.597L148.877 126.318C149.49 125.956 149.958 125.437 150.272 124.793L148.475 123.915ZM147.857 124.598C147.603 124.749 147.27 124.845 146.821 124.845V126.845C147.565 126.845 148.264 126.683 148.879 126.317L147.857 124.598ZM146.821 124.845C146.363 124.845 146.042 124.747 145.808 124.601L144.749 126.297C145.362 126.68 146.069 126.845 146.821 126.845V124.845ZM145.81 124.602C145.568 124.45 145.372 124.231 145.225 123.909L143.406 124.739C143.702 125.389 144.148 125.92 144.746 126.296L145.81 124.602ZM145.227 123.913C145.079 123.585 144.987 123.155 144.987 122.598H142.987C142.987 123.37 143.114 124.092 143.404 124.735L145.227 123.913ZM144.987 122.598V120.318H142.987V122.598H144.987ZM143.987 121.318H145.649V119.318H143.987V121.318ZM144.649 120.318V122.206H146.649V120.318H144.649ZM144.649 122.206C144.649 122.603 144.699 123 144.84 123.364L146.705 122.642C146.681 122.58 146.649 122.446 146.649 122.206H144.649ZM144.843 123.37C144.993 123.751 145.243 124.092 145.611 124.332L146.701 122.655C146.705 122.657 146.709 122.66 146.713 122.664C146.717 122.667 146.719 122.67 146.72 122.671C146.722 122.674 146.714 122.665 146.703 122.636L144.843 123.37ZM145.618 124.336C145.995 124.577 146.419 124.659 146.821 124.659V122.659C146.684 122.659 146.664 122.631 146.695 122.651L145.618 124.336ZM146.821 124.659C147.224 124.659 147.646 124.576 148.023 124.34L146.958 122.647C146.982 122.631 146.958 122.659 146.821 122.659V124.659ZM148.016 124.343C148.395 124.109 148.658 123.77 148.817 123.381L146.965 122.625C146.959 122.638 146.955 122.646 146.953 122.651C146.95 122.655 146.949 122.656 146.95 122.655C146.951 122.653 146.953 122.651 146.956 122.648C146.959 122.646 146.962 122.644 146.964 122.643L148.016 124.343ZM148.812 123.391C148.969 123.018 149.027 122.611 149.027 122.206H147.027C147.027 122.432 146.994 122.556 146.969 122.615L148.812 123.391ZM149.027 122.206V121.166H147.027V122.206H149.027ZM148.027 120.166H141V122.166H148.027V120.166ZM142 121.166V119.057H140V121.166H142ZM144.51 123.092L140.522 125.266L141.478 127.022L145.467 124.848L144.51 123.092ZM142 126.144V123.843H140V126.144H142ZM141.471 124.725L145.46 122.594L144.517 120.83L140.529 122.96L141.471 124.725ZM143.989 121.712V123.97H145.989V121.712H143.989ZM141.298 128.156L140.433 127.656L140.429 127.662L141.298 128.156ZM142.483 127.018L142.022 126.131L142.016 126.134L142.483 127.018ZM146.02 127.018L146.485 126.133L146.483 126.132L146.02 127.018ZM147.205 128.156L146.337 128.653L146.338 128.654L147.205 128.156ZM147.205 131.697L146.339 131.197L146.335 131.203L147.205 131.697ZM146.02 132.835L145.559 131.948L145.553 131.951L146.02 132.835ZM142.483 132.835L142.948 131.95L142.946 131.949L142.483 132.835ZM141.298 131.697L140.43 132.194L140.431 132.196L141.298 131.697ZM142.679 130.577L143.428 129.914L143.428 129.914L142.679 130.577ZM143.318 130.973L143.643 130.027L143.634 130.024L143.318 130.973ZM145.219 130.973L144.903 130.024L144.894 130.027L145.219 130.973ZM145.858 130.577L146.607 131.239L146.607 131.239L145.858 130.577ZM145.858 129.285L146.617 128.635L146.612 128.629L145.858 129.285ZM145.219 128.881L145.544 127.935L145.535 127.932L145.219 128.881ZM143.318 128.881L143.002 127.932L142.993 127.935L143.318 128.881ZM142.679 129.285L141.925 128.629L141.92 128.635L142.679 129.285ZM141.876 129.929C141.876 129.379 141.988 128.966 142.167 128.651L140.429 127.662C140.046 128.335 139.876 129.104 139.876 129.929H141.876ZM142.164 128.657C142.353 128.329 142.609 128.082 142.95 127.903L142.016 126.134C141.345 126.488 140.812 127 140.433 127.656L142.164 128.657ZM142.944 127.906C143.288 127.727 143.714 127.622 144.251 127.622V125.622C143.448 125.622 142.695 125.781 142.022 126.131L142.944 127.906ZM144.251 127.622C144.792 127.622 145.218 127.727 145.557 127.905L146.483 126.132C145.811 125.781 145.057 125.622 144.251 125.622V127.622ZM145.555 127.904C145.897 128.083 146.151 128.329 146.337 128.653L148.072 127.659C147.695 127 147.159 126.487 146.485 126.133L145.555 127.904ZM146.338 128.654C146.518 128.969 146.631 129.38 146.631 129.929H148.631C148.631 129.102 148.459 128.332 148.072 127.658L146.338 128.654ZM146.631 129.929C146.631 130.478 146.518 130.887 146.339 131.197L148.07 132.198C148.459 131.525 148.631 130.755 148.631 129.929H146.631ZM146.335 131.203C146.15 131.528 145.898 131.772 145.559 131.948L146.481 133.722C147.159 133.37 147.696 132.855 148.074 132.192L146.335 131.203ZM145.553 131.951C145.215 132.129 144.791 132.236 144.251 132.236V134.236C145.059 134.236 145.814 134.075 146.487 133.719L145.553 131.951ZM144.251 132.236C143.716 132.236 143.291 132.13 142.948 131.95L142.018 133.72C142.692 134.074 143.446 134.236 144.251 134.236V132.236ZM142.946 131.949C142.609 131.773 142.354 131.528 142.165 131.199L140.431 132.196C140.81 132.855 141.345 133.369 142.02 133.721L142.946 131.949ZM142.166 131.201C141.988 130.89 141.876 130.479 141.876 129.929H139.876C139.876 130.753 140.046 131.522 140.43 132.194L142.166 131.201ZM141.449 129.942C141.449 130.415 141.601 130.868 141.93 131.239L143.428 129.914C143.429 129.915 143.433 129.92 143.437 129.926C143.441 129.933 143.444 129.94 143.447 129.947C143.448 129.95 143.449 129.953 143.449 129.955C143.45 129.957 143.45 129.958 143.45 129.958C143.45 129.958 143.45 129.957 143.449 129.954C143.449 129.951 143.449 129.947 143.449 129.942H141.449ZM141.93 131.239C142.225 131.573 142.602 131.788 143.002 131.922L143.634 130.024C143.488 129.976 143.44 129.927 143.428 129.914L141.93 131.239ZM142.993 131.919C143.392 132.056 143.821 132.113 144.264 132.113V130.113C143.991 130.113 143.79 130.077 143.643 130.027L142.993 131.919ZM144.264 132.113C144.711 132.113 145.143 132.056 145.544 131.919L144.894 130.027C144.749 130.077 144.545 130.113 144.264 130.113V132.113ZM145.535 131.922C145.935 131.788 146.312 131.573 146.607 131.239L145.109 129.914C145.097 129.927 145.048 129.976 144.903 130.024L145.535 131.922ZM146.607 131.239C146.936 130.868 147.088 130.415 147.088 129.942H145.088C145.088 129.947 145.088 129.951 145.088 129.954C145.087 129.957 145.087 129.958 145.087 129.958C145.087 129.958 145.087 129.957 145.088 129.955C145.088 129.953 145.089 129.95 145.09 129.947C145.093 129.94 145.096 129.933 145.1 129.926C145.104 129.92 145.108 129.915 145.109 129.914L146.607 131.239ZM147.088 129.942C147.088 129.469 146.941 129.013 146.617 128.635L145.099 129.936C145.098 129.935 145.096 129.933 145.093 129.928C145.09 129.923 145.088 129.918 145.087 129.915C145.086 129.911 145.086 129.91 145.086 129.914C145.087 129.918 145.088 129.926 145.088 129.942H147.088ZM146.612 128.629C146.319 128.292 145.944 128.072 145.544 127.935L144.894 129.826C145.039 129.876 145.09 129.926 145.104 129.942L146.612 128.629ZM145.535 127.932C145.137 127.799 144.708 127.744 144.264 127.744V129.744C144.547 129.744 144.755 129.78 144.903 129.829L145.535 127.932ZM144.264 127.744C143.824 127.744 143.398 127.8 143.002 127.932L143.634 129.829C143.784 129.779 143.988 129.744 144.264 129.744V127.744ZM142.993 127.935C142.593 128.072 142.218 128.292 141.925 128.629L143.433 129.942C143.447 129.926 143.498 129.876 143.643 129.826L142.993 127.935ZM141.92 128.635C141.596 129.013 141.449 129.469 141.449 129.942H143.449C143.449 129.926 143.45 129.918 143.451 129.914C143.451 129.91 143.451 129.911 143.45 129.915C143.449 129.918 143.447 129.923 143.444 129.928C143.441 129.933 143.439 129.935 143.438 129.936L141.92 128.635ZM145.547 140.018L144.547 140.044L144.575 141.102L145.63 141.014L145.547 140.018ZM145.496 138.104L145.351 137.115L144.472 137.243L144.496 138.131L145.496 138.104ZM145.858 137.942L145.226 137.167L145.216 137.176L145.858 137.942ZM146.109 137.597L145.197 137.188L145.192 137.199L145.187 137.21L146.109 137.597ZM146.058 136.493L146.928 136L146.925 135.994L146.058 136.493ZM145.666 136.246L145.644 137.246L145.664 137.246L145.683 137.246L145.666 136.246ZM145.334 136.4L144.587 135.734L144.579 135.744L145.334 136.4ZM145.108 136.975L144.129 136.773L144.127 136.781L144.125 136.789L145.108 136.975ZM144.869 138.236L145.852 138.424L145.852 138.422L144.869 138.236ZM144.247 139.694L143.508 139.02L143.505 139.024L144.247 139.694ZM143.097 140.18L143.09 141.18L143.103 141.179L143.097 140.18ZM141.925 139.779L142.547 138.996L142.543 138.993L141.925 139.779ZM141.149 138.705L140.221 139.076L140.223 139.081L141.149 138.705ZM141.452 134.934L140.64 134.35L140.637 134.355L141.452 134.934ZM143.003 134.013L144.003 133.988L143.975 132.891L142.885 133.02L143.003 134.013ZM143.054 136.072L143.241 137.054L144.075 136.895L144.054 136.047L143.054 136.072ZM142.509 136.425L143.344 136.974L143.344 136.974L142.509 136.425ZM142.47 137.806L143.33 137.296L143.33 137.296L142.47 137.806ZM142.866 138.062L142.849 139.061L142.867 139.062L142.886 139.061L142.866 138.062ZM143.22 137.866L142.405 137.286L142.401 137.292L142.397 137.298L143.22 137.866ZM143.433 137.265L142.451 137.078L142.45 137.08L143.433 137.265ZM143.651 136.123L144.633 136.31L144.634 136.302L143.651 136.123ZM144.311 134.657L143.607 133.947L143.604 133.95L144.311 134.657ZM145.547 134.18L145.541 135.18L145.553 135.179L145.547 134.18ZM146.668 134.529L146.062 135.325L146.065 135.327L146.668 134.529ZM147.384 135.535L148.319 135.18L148.319 135.18L147.384 135.535ZM147.072 139.17L146.264 138.581L146.262 138.584L147.072 139.17ZM146.547 139.991L146.495 138.078L144.496 138.131L144.547 140.044L146.547 139.991ZM145.64 139.094C145.959 139.047 146.252 138.917 146.5 138.709L145.216 137.176C145.231 137.163 145.253 137.148 145.28 137.136C145.308 137.124 145.332 137.117 145.351 137.115L145.64 139.094ZM146.49 138.717C146.738 138.515 146.915 138.261 147.031 137.984L145.187 137.21C145.185 137.215 145.186 137.211 145.193 137.201C145.201 137.191 145.212 137.179 145.226 137.167L146.49 138.717ZM147.022 138.007C147.153 137.715 147.203 137.408 147.203 137.111H145.203C145.203 137.184 145.191 137.201 145.197 137.188L147.022 138.007ZM147.203 137.111C147.203 136.737 147.128 136.352 146.928 136L145.188 136.986C145.182 136.975 145.203 137.003 145.203 137.111H147.203ZM146.925 135.994C146.684 135.577 146.247 135.236 145.649 135.246L145.683 137.246C145.585 137.248 145.465 137.221 145.354 137.152C145.252 137.087 145.205 137.015 145.192 136.993L146.925 135.994ZM145.688 135.247C145.236 135.236 144.854 135.435 144.588 135.734L146.08 137.065C146.05 137.099 145.993 137.15 145.906 137.19C145.817 137.232 145.725 137.248 145.644 137.246L145.688 135.247ZM144.579 135.744C144.308 136.056 144.193 136.463 144.129 136.773L146.087 137.177C146.108 137.076 146.127 137.018 146.138 136.99C146.143 136.977 146.144 136.978 146.138 136.988C146.133 136.997 146.117 137.023 146.089 137.055L144.579 135.744ZM144.125 136.789L143.887 138.05L145.852 138.422L146.091 137.161L144.125 136.789ZM143.887 138.048C143.779 138.612 143.623 138.894 143.508 139.02L144.987 140.367C145.451 139.857 145.709 139.168 145.852 138.424L143.887 138.048ZM143.505 139.024C143.424 139.113 143.319 139.178 143.091 139.18L143.103 141.179C143.828 141.175 144.491 140.916 144.989 140.364L143.505 139.024ZM143.103 139.18C142.864 139.178 142.694 139.113 142.547 138.996L141.302 140.562C141.821 140.974 142.431 141.175 143.09 141.179L143.103 139.18ZM142.543 138.993C142.368 138.855 142.205 138.648 142.076 138.329L140.223 139.081C140.462 139.671 140.817 140.18 141.307 140.565L142.543 138.993ZM142.078 138.334C141.951 138.018 141.876 137.628 141.876 137.145H139.876C139.876 137.834 139.983 138.483 140.221 139.076L142.078 138.334ZM141.876 137.145C141.876 136.336 142.044 135.827 142.267 135.513L140.637 134.355C140.092 135.12 139.876 136.086 139.876 137.145H141.876ZM142.263 135.518C142.489 135.205 142.756 135.05 143.12 135.006L142.885 133.02C141.955 133.13 141.188 133.589 140.64 134.35L142.263 135.518ZM142.003 134.038L142.054 136.096L144.054 136.047L144.003 133.988L142.003 134.038ZM142.867 135.089C142.382 135.182 141.957 135.443 141.673 135.876L143.344 136.974C143.335 136.989 143.314 137.013 143.283 137.033C143.253 137.053 143.234 137.055 143.241 137.054L142.867 135.089ZM141.673 135.876C141.413 136.272 141.321 136.721 141.321 137.154H143.321C143.321 136.996 143.354 136.959 143.344 136.974L141.673 135.876ZM141.321 137.154C141.321 137.537 141.391 137.947 141.61 138.316L143.33 137.296C143.35 137.329 143.321 137.305 143.321 137.154H141.321ZM141.61 138.316C141.849 138.718 142.269 139.051 142.849 139.061L142.884 137.062C142.978 137.063 143.088 137.092 143.186 137.155C143.277 137.214 143.319 137.278 143.33 137.296L141.61 138.316ZM142.886 139.061C143.374 139.052 143.784 138.81 144.044 138.433L142.397 137.298C142.427 137.254 142.486 137.189 142.581 137.136C142.678 137.082 142.774 137.063 142.847 137.062L142.886 139.061ZM144.035 138.445C144.251 138.141 144.356 137.771 144.416 137.449L142.45 137.08C142.432 137.18 142.413 137.246 142.399 137.285C142.384 137.327 142.382 137.319 142.405 137.286L144.035 138.445ZM144.416 137.452L144.633 136.31L142.668 135.936L142.451 137.078L144.416 137.452ZM144.634 136.302C144.734 135.756 144.894 135.488 145.018 135.364L143.604 133.95C143.086 134.467 142.806 135.177 142.667 135.944L144.634 136.302ZM145.015 135.367C145.131 135.252 145.279 135.178 145.541 135.179L145.553 133.18C144.815 133.175 144.139 133.42 143.607 133.947L145.015 135.367ZM145.553 135.179C145.799 135.178 145.95 135.239 146.062 135.325L147.273 133.733C146.766 133.347 146.17 133.175 145.54 133.18L145.553 135.179ZM146.065 135.327C146.201 135.43 146.338 135.597 146.448 135.889L148.319 135.18C148.1 134.603 147.759 134.1 147.27 133.731L146.065 135.327ZM146.448 135.889C146.56 136.184 146.631 136.572 146.631 137.073H148.631C148.631 136.392 148.536 135.754 148.319 135.18L146.448 135.889ZM146.631 137.073C146.631 137.83 146.471 138.297 146.264 138.581L147.881 139.758C148.419 139.019 148.631 138.088 148.631 137.073H146.631ZM146.262 138.584C146.069 138.851 145.831 138.99 145.464 139.021L145.63 141.014C146.558 140.937 147.337 140.511 147.883 139.755L146.262 138.584ZM145.547 146.92L144.547 146.947L144.575 148.004L145.63 147.916L145.547 146.92ZM145.496 145.007L145.351 144.017L144.472 144.145L144.496 145.033L145.496 145.007ZM145.858 144.845L145.226 144.07L145.216 144.078L145.858 144.845ZM146.109 144.499L145.197 144.09L145.192 144.101L145.187 144.112L146.109 144.499ZM146.058 143.396L146.928 142.903L146.925 142.896L146.058 143.396ZM145.666 143.149L145.644 144.148L145.664 144.149L145.683 144.148L145.666 143.149ZM145.334 143.302L144.587 142.636L144.579 142.646L145.334 143.302ZM145.108 143.877L144.129 143.675L144.127 143.683L144.125 143.691L145.108 143.877ZM144.869 145.139L145.852 145.327L145.852 145.325L144.869 145.139ZM144.247 146.596L143.508 145.923L143.505 145.926L144.247 146.596ZM143.097 147.082L143.09 148.082L143.103 148.082L143.097 147.082ZM141.925 146.681L142.547 145.898L142.543 145.895L141.925 146.681ZM141.149 145.607L140.221 145.979L140.223 145.984L141.149 145.607ZM141.452 141.836L140.64 141.252L140.637 141.257L141.452 141.836ZM143.003 140.916L144.003 140.891L143.975 139.794L142.885 139.923L143.003 140.916ZM143.054 142.974L143.241 143.956L144.075 143.797L144.054 142.949L143.054 142.974ZM142.509 143.328L143.344 143.877L143.344 143.877L142.509 143.328ZM142.47 144.708L143.33 144.198L143.33 144.198L142.47 144.708ZM142.866 144.964L142.849 145.964L142.867 145.964L142.886 145.964L142.866 144.964ZM143.22 144.768L142.405 144.188L142.401 144.194L142.397 144.201L143.22 144.768ZM143.433 144.167L142.451 143.98L142.45 143.983L143.433 144.167ZM143.651 143.025L144.633 143.212L144.634 143.204L143.651 143.025ZM144.311 141.559L143.607 140.849L143.604 140.852L144.311 141.559ZM145.547 141.082L145.541 142.082L145.553 142.082L145.547 141.082ZM146.668 141.431L146.062 142.227L146.065 142.23L146.668 141.431ZM147.384 142.437L148.319 142.082L148.319 142.082L147.384 142.437ZM147.072 146.072L146.264 145.483L146.262 145.486L147.072 146.072ZM146.547 146.893L146.495 144.98L144.496 145.033L144.547 146.947L146.547 146.893ZM145.64 145.996C145.959 145.95 146.252 145.819 146.5 145.611L145.216 144.078C145.231 144.065 145.253 144.05 145.28 144.038C145.308 144.026 145.332 144.02 145.351 144.017L145.64 145.996ZM146.49 145.62C146.738 145.417 146.915 145.163 147.031 144.887L145.187 144.112C145.185 144.118 145.186 144.113 145.193 144.104C145.201 144.093 145.212 144.081 145.226 144.07L146.49 145.62ZM147.022 144.909C147.153 144.617 147.203 144.31 147.203 144.014H145.203C145.203 144.086 145.191 144.104 145.197 144.09L147.022 144.909ZM147.203 144.014C147.203 143.639 147.128 143.255 146.928 142.903L145.188 143.889C145.182 143.878 145.203 143.905 145.203 144.014H147.203ZM146.925 142.896C146.684 142.479 146.247 142.138 145.649 142.149L145.683 144.148C145.585 144.15 145.465 144.124 145.354 144.054C145.252 143.989 145.205 143.917 145.192 143.895L146.925 142.896ZM145.688 142.149C145.236 142.139 144.854 142.338 144.588 142.636L146.08 143.968C146.05 144.002 145.993 144.053 145.906 144.093C145.817 144.134 145.725 144.15 145.644 144.148L145.688 142.149ZM144.579 142.646C144.308 142.958 144.193 143.365 144.129 143.675L146.087 144.079C146.108 143.979 146.127 143.92 146.138 143.892C146.143 143.879 146.144 143.88 146.138 143.89C146.133 143.9 146.117 143.925 146.089 143.958L144.579 142.646ZM144.125 143.691L143.887 144.953L145.852 145.325L146.091 144.063L144.125 143.691ZM143.887 144.951C143.779 145.514 143.623 145.796 143.508 145.923L144.987 147.269C145.451 146.76 145.709 146.07 145.852 145.327L143.887 144.951ZM143.505 145.926C143.424 146.016 143.319 146.081 143.091 146.082L143.103 148.082C143.828 148.078 144.491 147.819 144.989 147.266L143.505 145.926ZM143.103 146.082C142.864 146.08 142.694 146.015 142.547 145.898L141.302 147.464C141.821 147.876 142.431 148.078 143.09 148.082L143.103 146.082ZM142.543 145.895C142.368 145.757 142.205 145.551 142.076 145.231L140.223 145.984C140.462 146.573 140.817 147.082 141.307 147.467L142.543 145.895ZM142.078 145.236C141.951 144.92 141.876 144.53 141.876 144.048H139.876C139.876 144.736 139.983 145.386 140.221 145.979L142.078 145.236ZM141.876 144.048C141.876 143.238 142.044 142.729 142.267 142.415L140.637 141.257C140.092 142.023 139.876 142.988 139.876 144.048H141.876ZM142.263 142.42C142.489 142.107 142.756 141.952 143.12 141.909L142.885 139.923C141.955 140.033 141.188 140.491 140.64 141.252L142.263 142.42ZM142.003 140.94L142.054 142.999L144.054 142.949L144.003 140.891L142.003 140.94ZM142.867 141.992C142.382 142.084 141.957 142.346 141.673 142.779L143.344 143.877C143.335 143.891 143.314 143.915 143.283 143.935C143.253 143.955 143.234 143.958 143.241 143.956L142.867 141.992ZM141.673 142.779C141.413 143.174 141.321 143.623 141.321 144.056H143.321C143.321 143.899 143.354 143.862 143.344 143.877L141.673 142.779ZM141.321 144.056C141.321 144.439 141.391 144.85 141.61 145.218L143.33 144.198C143.35 144.232 143.321 144.208 143.321 144.056H141.321ZM141.61 145.218C141.849 145.621 142.269 145.954 142.849 145.964L142.884 143.964C142.978 143.966 143.088 143.994 143.186 144.058C143.277 144.117 143.319 144.18 143.33 144.198L141.61 145.218ZM142.886 145.964C143.374 145.954 143.784 145.713 144.044 145.335L142.397 144.201C142.427 144.157 142.486 144.091 142.581 144.038C142.678 143.984 142.774 143.966 142.847 143.964L142.886 145.964ZM144.035 145.347C144.251 145.043 144.356 144.673 144.416 144.351L142.45 143.983C142.432 144.083 142.413 144.148 142.399 144.188C142.384 144.229 142.382 144.221 142.405 144.188L144.035 145.347ZM144.416 144.354L144.633 143.212L142.668 142.838L142.451 143.98L144.416 144.354ZM144.634 143.204C144.734 142.659 144.894 142.39 145.018 142.266L143.604 140.852C143.086 141.37 142.806 142.079 142.667 142.846L144.634 143.204ZM145.015 142.269C145.131 142.154 145.279 142.08 145.541 142.082L145.553 140.082C144.815 140.078 144.139 140.322 143.607 140.849L145.015 142.269ZM145.553 142.082C145.799 142.08 145.95 142.142 146.062 142.227L147.273 140.636C146.766 140.249 146.17 140.078 145.54 140.082L145.553 142.082ZM146.065 142.23C146.201 142.332 146.338 142.5 146.448 142.791L148.319 142.082C148.1 141.505 147.759 141.002 147.27 140.633L146.065 142.23ZM146.448 142.791C146.56 143.087 146.631 143.474 146.631 143.975H148.631C148.631 143.295 148.536 142.656 148.319 142.082L146.448 142.791ZM146.631 143.975C146.631 144.733 146.471 145.2 146.264 145.483L147.881 146.66C148.419 145.922 148.631 144.991 148.631 143.975H146.631ZM146.262 145.486C146.069 145.753 145.831 145.893 145.464 145.923L145.63 147.916C146.558 147.839 147.337 147.414 147.883 146.657L146.262 145.486Z" fill="black" mask="url(#path-36-inside-1_15_155)"/>
<line x1="97.5" y1="238" x2="97.5" y2="286" stroke="black"/>
<line x1="192.5" y1="238" x2="192.5" y2="286" stroke="black"/>
<line x1="139.5" y1="238" x2="139.5" y2="286" stroke="black"/>
<line x1="150.5" y1="238" x2="150.5" y2="286" stroke="black"/>
<line x1="98" y1="237.5" x2="103" y2="237.5" stroke="black"/>
<line x1="135" y1="237.5" x2="140" y2="237.5" stroke="black"/>
<line x1="150" y1="237.5" x2="155" y2="237.5" stroke="black"/>
<line x1="187" y1="237.5" x2="192" y2="237.5" stroke="black"/>
</svg>
